HIERARCHY
ROOT joint_Root
{
	OFFSET 0.0 0.0 0.0
	CHANNELS 6 Xposition Yposition Zposition Zrotation Xrotation Yrotation 
	JOINT Hips
	{
		OFFSET -0.726466 93.3139 -2.00062
		CHANNELS 6 Xposition Yposition Zposition Zrotation Xrotation Yrotation 
		JOINT Spine
		{
			OFFSET 15.7357 0.0 0.0
			CHANNELS 6 Xposition Yposition Zposition Zrotation Xrotation Yrotation 
			JOINT Chest
			{
				OFFSET 8.98455 -0.406207 0.0
				CHANNELS 6 Xposition Yposition Zposition Zrotation Xrotation Yrotation 
				JOINT Neck
				{
					OFFSET 16.3773 0.0 0.0
					CHANNELS 6 Xposition Yposition Zposition Zrotation Xrotation Yrotation 
					JOINT Head
					{
						OFFSET 6.45672 0.0 0.0
						CHANNELS 6 Xposition Yposition Zposition Zrotation Xrotation Yrotation 
						End Site
						{
							OFFSET 0.0 0.0 0.0
						}
					}
				}
				JOINT Shoulder_L
				{
					OFFSET 12.9942 -0.242716 4.98039
					CHANNELS 6 Xposition Yposition Zposition Zrotation Xrotation Yrotation 
					JOINT UpperArm_L
					{
						OFFSET 5.34809 0.0 0.0
						CHANNELS 6 Xposition Yposition Zposition Zrotation Xrotation Yrotation 
						JOINT LowerArm_L
						{
							OFFSET 24.3286 1.87007e-05 0.0
							CHANNELS 6 Xposition Yposition Zposition Zrotation Xrotation Yrotation 
							JOINT Hand_L
							{
								OFFSET 22.2916 0.0 0.0
								CHANNELS 6 Xposition Yposition Zposition Zrotation Xrotation Yrotation 
								End Site
								{
									OFFSET 0.0 0.0 0.0
								}
							}
						}
					}
				}
				JOINT Shoulder_R
				{
					OFFSET 12.9945 -0.242716 -4.98039
					CHANNELS 6 Xposition Yposition Zposition Zrotation Xrotation Yrotation 
					JOINT UpperArm_R
					{
						OFFSET -5.34813 0.0 0.0
						CHANNELS 6 Xposition Yposition Zposition Zrotation Xrotation Yrotation 
						JOINT LowerArm_R
						{
							OFFSET -24.3289 0.000322201 0.0
							CHANNELS 6 Xposition Yposition Zposition Zrotation Xrotation Yrotation 
							JOINT Hand_R
							{
								OFFSET -22.2915 -0.000108084 0.0
								CHANNELS 6 Xposition Yposition Zposition Zrotation Xrotation Yrotation 
								End Site
								{
									OFFSET 0.0 0.0 0.0
								}
							}
						}
					}
				}
			}
		}
		JOINT UpperLeg_L
		{
			OFFSET -2.19248 -6.46944 0.0
			CHANNELS 6 Xposition Yposition Zposition Zrotation Xrotation Yrotation 
			JOINT LowerLeg_L
			{
				OFFSET 39.0811 0.0 -1.23785e-05
				CHANNELS 6 Xposition Yposition Zposition Zrotation Xrotation Yrotation 
				JOINT Foot_L
				{
					OFFSET 40.9854 0.0 -1.26872e-05
					CHANNELS 6 Xposition Yposition Zposition Zrotation Xrotation Yrotation 
					JOINT Toes_L
					{
						OFFSET 11.7543 0.0 0.0
						CHANNELS 6 Xposition Yposition Zposition Zrotation Xrotation Yrotation 
						End Site
						{
							OFFSET 0.0 0.0 0.0
						}
					}
				}
			}
		}
		JOINT UpperLeg_R
		{
			OFFSET -2.19251 6.46944 0.0
			CHANNELS 6 Xposition Yposition Zposition Zrotation Xrotation Yrotation 
			JOINT LowerLeg_R
			{
				OFFSET -39.0811 -0.00228153 -0.0401928
				CHANNELS 6 Xposition Yposition Zposition Zrotation Xrotation Yrotation 
				JOINT Foot_R
				{
					OFFSET -40.9854 0.0 0.0
					CHANNELS 6 Xposition Yposition Zposition Zrotation Xrotation Yrotation 
					JOINT Toes_R
					{
						OFFSET -11.7543 0.0 0.0
						CHANNELS 6 Xposition Yposition Zposition Zrotation Xrotation Yrotation 
						End Site
						{
							OFFSET 0.0 0.0 0.0
						}
					}
				}
			}
		}
	}
}
MOTION
Frames:	4
Frame Time:	0.0333333
0.000000 0.000000 0.000000 0.000000 0.000000 -0.000000 -4.483910 87.842300 -35.810500 83.386400 6.475230 7.073400 15.735700 0.000005 -0.000001 66.714200 82.846300 -63.375400 8.984550 -0.406207 -0.000000 5.573050 -5.706590 6.952420 16.377300 -0.000001 -0.000001 2.254150 -1.816580 -0.169322 6.456720 -0.000001 -0.000000 3.068380 1.992130 -3.098320 12.994200 -0.242716 4.980390 -90.000900 0.003006 -73.950100 5.348090 -0.000007 -0.000001 -63.945800 35.879300 -24.056700 24.328600 0.000019 0.000005 0.382562 0.566607 -34.127800 22.291600 -0.000001 0.000005 9.858630 5.564500 -9.395930 12.994500 -0.242716 -4.980390 87.701100 6.094700 -69.288000 -5.348130 -0.000001 -0.000004 -70.664200 22.205200 -2.139280 -24.328900 0.000322 -0.000009 0.914913 13.585200 -3.896590 -22.291500 -0.000108 -0.000004 9.165200 5.288690 0.386334 -2.192480 -6.469440 -0.000000 -167.945000 -1.887200 6.562190 39.081100 -0.000007 -0.000012 0.072670 -0.056192 52.285200 40.985400 -0.000006 -0.000013 2.407960 -2.115260 -49.090700 11.754300 -0.000000 0.000003 -0.091056 -0.421815 -34.140600 -2.192510 6.469440 -0.000001 -170.817000 12.328300 156.418000 -39.081100 -0.002282 -0.040193 0.114725 -0.145466 37.455400 -40.985400 0.000008 0.000006 9.184330 -5.583190 -57.998600 -11.754300 -0.000006 -0.000006 -0.012118 -0.118835 -21.417700
0.000000 0.000000 0.000000 0.000000 0.000000 -0.000000 -5.079020 88.188800 -31.704200 82.959400 6.394680 7.505530 15.735700 0.000005 -0.000001 70.050500 82.818500 -66.579500 8.984550 -0.406207 -0.000000 5.911860 -4.943990 7.193120 16.377300 -0.000001 -0.000001 1.878400 -2.272970 0.187767 6.456720 -0.000001 -0.000000 2.860410 1.207060 -2.522360 12.994200 -0.242716 4.980390 -89.934800 -0.229877 -74.155700 5.348090 -0.000007 -0.000001 -67.824500 35.523700 -20.943200 24.328600 0.000019 0.000005 1.155350 2.287150 -26.856200 22.291600 -0.000001 0.000005 8.388880 5.522170 -7.437630 12.994500 -0.242716 -4.980390 87.694600 6.252790 -69.714100 -5.348130 -0.000001 -0.000004 -69.951500 24.002700 -5.551040 -24.328900 0.000322 -0.000009 1.345930 11.806400 -6.560100 -22.291500 -0.000108 -0.000004 8.376570 5.305480 -0.083134 -2.192480 -6.469440 -0.000000 -167.913000 -1.307830 -0.238465 39.081100 -0.000007 -0.000012 0.067186 -0.035616 62.067800 40.985400 -0.000006 -0.000013 4.447450 -5.823590 -37.432100 11.754300 -0.000000 0.000003 -0.006164 -0.072323 -19.520400 -2.192510 6.469440 -0.000001 -170.257000 13.481000 159.579000 -39.081100 -0.002282 -0.040193 0.132490 -0.164225 38.194400 -40.985400 0.000008 0.000006 9.360590 -5.191430 -61.923600 -11.754300 -0.000006 -0.000006 -0.011559 -0.114941 -21.258200
0.000000 0.000000 0.000000 0.000000 0.000000 -0.000000 -5.365480 88.879100 -27.911200 83.404600 5.401990 7.619270 15.735700 0.000005 -0.000001 75.504800 82.908400 -72.287700 8.984550 -0.406207 -0.000000 6.083950 -3.587480 6.619470 16.377300 -0.000001 -0.000001 1.828180 -2.593740 0.570908 6.456720 -0.000001 -0.000000 2.707630 0.215328 -1.696170 12.994200 -0.242716 4.980390 -89.859400 -0.489429 -73.975600 5.348090 -0.000007 -0.000001 -70.831700 34.811200 -18.161800 24.328600 0.000019 0.000005 1.890210 5.130300 -20.285100 22.291600 -0.000001 0.000005 6.737450 5.463850 -5.126430 12.994500 -0.242716 -4.980390 87.614900 6.678650 -70.295000 -5.348130 -0.000001 -0.000004 -68.040800 27.103100 -9.748010 -24.328900 0.000322 -0.000009 1.710640 10.154600 -9.622270 -22.291500 -0.000108 -0.000004 8.565220 5.333970 -0.897766 -2.192480 -6.469440 -0.000000 -168.828000 -2.656120 -5.802830 39.081100 -0.000007 -0.000012 0.036658 -0.013865 69.273000 40.985400 -0.000006 -0.000013 6.395710 -7.977020 -41.126200 11.754300 -0.000000 0.000003 -0.007400 -0.083068 -19.958800 -2.192510 6.469440 -0.000001 -170.769000 13.031100 163.410000 -39.081100 -0.002282 -0.040193 0.131570 -0.170529 36.953200 -40.985400 0.000008 0.000006 9.230810 -5.008310 -64.173300 -11.754300 -0.000006 -0.000006 -0.011463 -0.114261 -21.230400
0.000000 0.000000 0.000000 0.000000 0.000000 -0.000000 -5.329220 89.727100 -24.343200 84.762600 3.527860 7.737070 15.735700 0.000005 -0.000001 81.865600 82.916000 -79.273800 8.984550 -0.406207 -0.000000 6.313710 -2.031640 5.290400 16.377300 -0.000001 -0.000001 2.067580 -2.422450 0.832464 6.456720 -0.000001 -0.000000 2.643450 -0.667587 -1.049900 12.994200 -0.242716 4.980390 -89.666600 -1.114300 -73.344900 5.348090 -0.000007 -0.000001 -73.853800 32.600700 -14.580600 24.328600 0.000019 0.000005 2.640360 9.336480 -15.878100 22.291600 -0.000001 0.000005 5.018390 5.416630 -3.475800 12.994500 -0.242716 -4.980390 87.681100 6.844000 -71.231900 -5.348130 -0.000001 -0.000004 -65.459100 30.254500 -14.928400 -24.328900 0.000322 -0.000009 2.030280 9.264520 -12.425900 -22.291500 -0.000108 -0.000004 9.828380 5.360820 -1.702640 -2.192480 -6.469440 -0.000000 -170.881000 -5.138120 -10.431000 39.081100 -0.000007 -0.000012 0.024564 -0.007863 72.237400 40.985400 -0.000006 -0.000013 7.418080 -8.472330 -44.332200 11.754300 -0.000000 0.000003 -0.007110 -0.080611 -19.858500 -2.192510 6.469440 -0.000001 -172.472000 12.263000 167.743000 -39.081100 -0.002282 -0.040193 0.120003 -0.168699 34.676700 -40.985400 0.000008 0.000006 8.985490 -3.934600 -65.648600 -11.754300 -0.000006 -0.000006 -0.011673 -0.115743 -21.291000
